HIERARCHY
ROOT hip
{
  OFFSET 0 0 0
  CHANNELS 6 Xposition Yposition Zposition Zrotation Yrotation Xrotation
  JOINT abdomen
  {
    OFFSET 0 20.6881 -0.73152
    CHANNELS 3 Zrotation Xrotation Yrotation
    JOINT chest
    {
      OFFSET 0 11.7043 -0.48768
      CHANNELS 3 Zrotation Xrotation Yrotation
      JOINT neck
      {
        OFFSET 0 22.1894 -2.19456
        CHANNELS 3 Zrotation Xrotation Yrotation
        JOINT head
        {
          OFFSET -0.24384 7.07133 1.2192
          CHANNELS 3 Zrotation Xrotation Yrotation
          JOINT leftEye
          {
            OFFSET 4.14528 8.04674 8.04672
            CHANNELS 3 Zrotation Xrotation Yrotation
            End Site
            {
              OFFSET 1 0 0
            }
          }
          JOINT rightEye
          {
            OFFSET -3.6576 8.04674 8.04672
            CHANNELS 3 Zrotation Xrotation Yrotation
            End Site
            {
              OFFSET 1 0 0
            }
          }
        }
      }
      JOINT rCollar
      {
        OFFSET -2.68224 19.2634 -4.8768
        CHANNELS 3 Zrotation Xrotation Yrotation
        JOINT rShldr
        {
          OFFSET -8.77824 -1.95073 1.46304
          CHANNELS 3 Zrotation Xrotation Yrotation
          JOINT rForeArm
          {
            OFFSET -28.1742 -1.7115 0.48768
            CHANNELS 3 Zrotation Xrotation Yrotation
            JOINT rHand
            {
              OFFSET -22.5879 0.773209 7.07136
              CHANNELS 3 Zrotation Xrotation Yrotation
              JOINT rThumb1
              {
                OFFSET -1.2192 -0.487915 3.41376
                CHANNELS 3 Zrotation Xrotation Yrotation
                JOINT rThumb2
                {
                  OFFSET -3.37035 -0.52449 3.41376
                  CHANNELS 3 Zrotation Xrotation Yrotation
                  End Site
                  {
                    OFFSET -1.78271 -1.18214 1.43049
                  }
                }
              }
              JOINT rIndex1
              {
                OFFSET -7.75947 0.938293 5.60832
                CHANNELS 3 Zrotation Xrotation Yrotation
                JOINT rIndex2
                {
                  OFFSET -2.54057 -0.884171 1.56538
                  CHANNELS 3 Zrotation Xrotation Yrotation
                  End Site
                  {
                    OFFSET -1.62519 -0.234802 1.16502
                  }
                }
              }
              JOINT rMid1
              {
                OFFSET -8.24714 1.18213 3.41376
                CHANNELS 3 Zrotation Xrotation Yrotation
                JOINT rMid2
                {
                  OFFSET -3.10165 -0.590103 1.0647
                  CHANNELS 3 Zrotation Xrotation Yrotation
                  End Site
                  {
                    OFFSET -2.48547 -0.328903 0.83742
                  }
                }
              }
              JOINT rRing1
              {
                OFFSET -8.82822 0.546677 1.51678
                CHANNELS 3 Zrotation Xrotation Yrotation
                JOINT rRing2
                {
                  OFFSET -2.60934 -0.819778 -0.0198488
                  CHANNELS 3 Zrotation Xrotation Yrotation
                  End Site
                  {
                    OFFSET -2.33842 -0.294052 0.168128
                  }
                }
              }
              JOINT rPinky1
              {
                OFFSET -8.27202 -0.0477905 -0.4584
                CHANNELS 3 Zrotation Xrotation Yrotation
                JOINT rPinky2
                {
                  OFFSET -1.82734 -0.647385 -0.700984
                  CHANNELS 3 Zrotation Xrotation Yrotation
                  End Site
                  {
                    OFFSET -1.69225 -0.51767 -0.607171
                  }
                }
              }
            }
          }
        }
      }
      JOINT lCollar
      {
        OFFSET 2.68224 19.2634 -4.8768
        CHANNELS 3 Zrotation Xrotation Yrotation
        JOINT lShldr
        {
          OFFSET 8.77824 -1.95073 1.46304
          CHANNELS 3 Zrotation Xrotation Yrotation
          JOINT lForeArm
          {
            OFFSET 28.1742 -1.7115 0.48768
            CHANNELS 3 Zrotation Xrotation Yrotation
            JOINT lHand
            {
              OFFSET 22.5879 0.773209 7.07136
              CHANNELS 3 Zrotation Xrotation Yrotation
              JOINT lThumb1
              {
                OFFSET 1.2192 -0.487915 3.41376
                CHANNELS 3 Zrotation Xrotation Yrotation
                JOINT lThumb2
                {
                  OFFSET 3.37035 -0.52449 3.41376
                  CHANNELS 3 Zrotation Xrotation Yrotation
                  End Site
                  {
                    OFFSET 1.78271 -1.18214 1.43049
                  }
                }
              }
              JOINT lIndex1
              {
                OFFSET 7.75947 0.938293 5.60832
                CHANNELS 3 Zrotation Xrotation Yrotation
                JOINT lIndex2
                {
                  OFFSET 2.54057 -0.884171 1.56538
                  CHANNELS 3 Zrotation Xrotation Yrotation
                  End Site
                  {
                    OFFSET 1.62519 -0.234802 1.16502
                  }
                }
              }
              JOINT lMid1
              {
                OFFSET 8.24714 1.18213 3.41376
                CHANNELS 3 Zrotation Xrotation Yrotation
                JOINT lMid2
                {
                  OFFSET 3.10165 -0.590103 1.0647
                  CHANNELS 3 Zrotation Xrotation Yrotation
                  End Site
                  {
                    OFFSET 2.48547 -0.328903 0.83742
                  }
                }
              }
              JOINT lRing1
              {
                OFFSET 8.82822 0.546677 1.51678
                CHANNELS 3 Zrotation Xrotation Yrotation
                JOINT lRing2
                {
                  OFFSET 2.60934 -0.819778 -0.0198488
                  CHANNELS 3 Zrotation Xrotation Yrotation
                  End Site
                  {
                    OFFSET 2.33842 -0.294052 0.168128
                  }
                }
              }
              JOINT lPinky1
              {
                OFFSET 8.27202 -0.0477905 -0.4584
                CHANNELS 3 Zrotation Xrotation Yrotation
                JOINT lPinky2
                {
                  OFFSET 1.82734 -0.647385 -0.700984
                  CHANNELS 3 Zrotation Xrotation Yrotation
                  End Site
                  {
                    OFFSET 1.69225 -0.51767 -0.607171
                  }
                }
              }
            }
          }
        }
      }
    }
  }
  JOINT rButtock
  {
    OFFSET -8.77824 4.35084 1.2192
    CHANNELS 3 Zrotation Xrotation Yrotation
    JOINT rThigh
    {
      OFFSET 0 -1.70687 -2.19456
      CHANNELS 3 Zrotation Xrotation Yrotation
      JOINT rShin
      {
        OFFSET 0 -36.8199 0.73152
        CHANNELS 3 Zrotation Xrotation Yrotation
        JOINT rFoot
        {
          OFFSET 0.73152 -45.1104 -5.12064
          CHANNELS 3 Zrotation Xrotation Yrotation
          End Site
          {
            OFFSET -1.1221 -3.69964 12.103
          }
        }
      }
    }
  }
  JOINT lButtock
  {
    OFFSET 8.77824 4.35084 1.2192
    CHANNELS 3 Zrotation Xrotation Yrotation
    JOINT lThigh
    {
      OFFSET 0 -1.70687 -2.19456
      CHANNELS 3 Zrotation Xrotation Yrotation
      JOINT lShin
      {
        OFFSET 0 -36.8199 0.73152
        CHANNELS 3 Zrotation Xrotation Yrotation
        JOINT lFoot
        {
          OFFSET -0.73152 -45.1104 -5.12064
          CHANNELS 3 Zrotation Xrotation Yrotation
          End Site
          {
            OFFSET 1.1221 -3.69964 12.103
          }
        }
      }
    }
  }
}
MOTION
Frames:	4
Frame Time:	0.03333
0.033964961767196655 -10.859669744968414 -0.004786625504493713 -4.348260402679443 2.1801986694335938 5.750485897064209 -2.556460380554199 14.109888076782227 3.6151857376098633 2.7170183658599854 -9.212995529174805 1.2143027782440186 -5.223104953765869 15.094826698303223 -3.9096734523773193 8.911820411682129 -24.44842529296875 -5.852765083312988 -0.010818567126989365 -0.1477164924144745 -0.004738178104162216 0.06918299198150635 -0.11164341866970062 -0.06623093038797379 -0.01762722060084343 -0.025605881586670876 -0.041589125990867615 47.376991271972656 37.71092987060547 17.426254272460938 -27.140270233154297 -26.834203720092773 62.44944763183594 -0.0025221314281225204 -9.801384925842285 -1.335349202156067 0.03537450730800629 0.0057570612989366055 0.014257716946303844 0.028922967612743378 -0.04291277378797531 -0.00670522078871727 -0.18956929445266724 0.04755986109375954 -0.04591982439160347 7.754550457000732 5.472652435302734 0.44199398159980774 0.000801648129709065 0.09110955893993378 -0.10035198926925659 2.8786559104919434 0.9021719098091125 0.13613636791706085 0.0750456377863884 -0.011203836649656296 -0.10857515782117844 10.294217109680176 0.7044385075569153 0.06086282432079315 -0.03174597769975662 -0.019346773624420166 0.004676130134612322 2.171279191970825 -0.7816247940063477 -0.22178806364536285 0.014429931528866291 -0.080515056848526 -0.04974818602204323 -54.6172981262207 40.20879364013672 -26.91576385498047 26.620248794555664 -25.219104766845703 -59.51459884643555 0.21211661398410797 -12.267965316772461 1.7726396322250366 0.10793981701135635 0.06986599415540695 -0.017980866134166718 -0.08116564899682999 0.024813145399093628 0.03385445103049278 0.08267825096845627 0.06277263909578323 2.5742396246641874e-05 -7.743678569793701 5.401673793792725 -0.3751717209815979 0.08647829294204712 0.12346182763576508 0.035426683723926544 -2.9229562282562256 0.9428234696388245 -0.12065541744232178 0.010162265971302986 0.1052982434630394 -0.03734111040830612 -10.343320846557617 0.8108159899711609 -0.039535246789455414 0.05833404138684273 0.03712040185928345 -0.07068858295679092 -2.312589645385742 -0.683804452419281 0.21698962152004242 -0.015445679426193237 0.1101490929722786 -0.0031486216466873884 -23.37787628173828 -39.539371490478516 -19.57796859741211 -1.4419342279434204 64.29106903076172 2.5400023460388184 -3.5078694820404053 -10.446334838867188 -9.86940860748291 0.04526331648230553 0.08439498394727707 -0.07648604363203049 27.811918258666992 -38.364906311035156 20.7739200592041 1.3214491605758667 64.4668197631836 -2.5632264614105225 4.223283767700195 -10.546540260314941 13.862360954284668
0.07212236523628235 -10.838453471660614 1.3131648302078247e-05 -3.8100650310516357 2.3669486045837402 6.007534027099609 -2.608227014541626 14.044621467590332 3.5743916034698486 2.6757876873016357 -9.166962623596191 1.104063868522644 -5.176902770996094 15.123519897460938 -3.885645627975464 8.833918571472168 -24.50518798828125 -5.82000207901001 0.013083387166261673 -0.18807964026927948 0.007715955376625061 0.07115869969129562 -0.13361485302448273 -0.04335225000977516 -0.009244615212082863 -0.03156273066997528 -0.04399949684739113 47.531124114990234 37.50836944580078 17.311128616333008 -27.1436710357666 -26.715293884277344 62.24217987060547 -0.026438305154442787 -9.542715072631836 -1.3332797288894653 0.020086141303181648 -0.001234159106388688 0.06248556077480316 0.00819383654743433 -0.00033737823832780123 0.03844411298632622 -0.21000979840755463 0.017600255087018013 -0.07776009291410446 7.74578857421875 5.503602027893066 0.41166120767593384 -0.019550837576389313 0.09563509374856949 -0.08656324446201324 2.8505256175994873 0.8394110202789307 0.11065367609262466 0.05855083465576172 0.0006880176952108741 -0.12094978243112564 10.288544654846191 0.731171190738678 -0.00010905452654697001 -0.004671742673963308 -0.008314711973071098 0.032291021198034286 2.1516754627227783 -0.8111517429351807 -0.19865377247333527 0.0331520140171051 -0.08217904716730118 -0.026085859164595604 -55.00735092163086 40.347129821777344 -26.258296966552734 26.58110809326172 -25.22810173034668 -59.54969024658203 0.21614763140678406 -12.408886909484863 1.811423659324646 0.0875113233923912 0.07588745653629303 -0.03221803903579712 -0.04114387556910515 0.006015472114086151 0.02079957351088524 0.05848882719874382 0.08234115689992905 0.0031161876395344734 -7.786513328552246 5.370492458343506 -0.3862718641757965 0.07227720320224762 0.1468799114227295 0.03671940043568611 -2.8847692012786865 0.9635237455368042 -0.07674996554851532 0.017569180577993393 0.06852615624666214 -0.02224576286971569 -10.301545143127441 0.8183808326721191 -0.033089034259319305 0.05926750972867012 0.0379263274371624 -0.05467592179775238 -2.3357319831848145 -0.651242733001709 0.21384567022323608 -0.01136245671659708 0.10954976826906204 0.006071784067898989 -23.557050704956055 -39.89646530151367 -19.8678035736084 -1.5955649614334106 64.52166748046875 2.666968584060669 -3.3860254287719727 -10.289949417114258 -9.602643966674805 0.06684921681880951 0.09409157186746597 -0.0672336146235466 27.251272201538086 -38.02092361450195 20.27877426147461 1.2962064743041992 64.34838104248047 -2.5384950637817383 4.180447101593018 -10.507169723510742 14.014525413513184
0.15584751963615417 -11.262959241867065 0.04911031574010849 10.648172378540039 22.06629180908203 3.623016357421875 -14.709282875061035 5.345130443572998 -2.4573097229003906 6.416472434997559 -8.85283088684082 -0.19895055890083313 -6.964715957641602 13.200430870056152 -8.274516105651855 7.3465375900268555 -19.0675106048584 -14.852450370788574 0.01550952810794115 -0.42365843057632446 0.10248121619224548 0.14102301001548767 -0.29263436794281006 -0.16709019243717194 0.11280414462089539 -0.2825407385826111 0.2145506590604782 60.824134826660156 6.389634132385254 41.624732971191406 -28.056795120239258 -30.940807342529297 69.14127349853516 -9.190964698791504 -61.67454147338867 -15.34331226348877 -0.06618017703294754 -0.021973147988319397 0.10431867837905884 0.11597170680761337 0.045950520783662796 0.017215466126799583 -0.6093496680259705 -0.044088877737522125 -0.08258311450481415 7.649778366088867 5.423090934753418 0.6814435124397278 -0.050467196851968765 -0.048568930476903915 -0.17381402850151062 2.924290180206299 0.7623401880264282 0.07825170457363129 -0.11767740547657013 0.10615503787994385 -0.02561839669942856 10.214347839355469 0.8889485597610474 -0.21818959712982178 -0.10574815422296524 -0.22905349731445312 -0.20034430921077728 2.1684963703155518 -0.7822169661521912 -0.2554914057254791 -0.14525927603244781 -0.21735690534114838 0.12112732976675034 -37.5252571105957 58.010475158691406 -66.65497589111328 16.964998245239258 -9.349320411682129 -30.99017906188965 3.9291439056396484 48.91704177856445 -9.276615142822266 0.191290482878685 0.29190850257873535 0.13333304226398468 -0.09160435944795609 0.03812268748879433 0.20417983829975128 0.28096824884414673 0.05763823539018631 0.06701070070266724 -7.620482444763184 5.237821102142334 -0.35104045271873474 0.22608831524848938 0.284496545791626 0.20405419170856476 -2.9536244869232178 0.7579870223999023 -0.13882920145988464 0.012005752883851528 -0.04754969850182533 -0.0393252819776535 -10.332061767578125 0.8006062507629395 0.23342421650886536 0.2844480872154236 0.21683304011821747 0.12868119776248932 -2.2482151985168457 -0.7428916096687317 0.19405949115753174 -0.07427176088094711 0.04712345451116562 0.032532788813114166 -43.358951568603516 -60.394248962402344 -39.87384796142578 -0.8316041827201843 64.72459411621094 1.6120034456253052 -3.3744101524353027 -4.053147792816162 -11.198909759521484 0.18596796691417694 0.20822054147720337 -0.010476612485945225 -3.741410493850708 5.876920700073242 8.62016487121582 -0.20551100373268127 42.05318069458008 -2.466859817504883 18.673185348510742 -25.29161262512207 37.25605010986328
0.21301116794347763 -11.8435800075531 0.06848480552434921 7.744808197021484 22.756885528564453 2.3820624351501465 -17.521020889282227 3.836015462875366 -0.8895791172981262 5.497866630554199 -7.529218673706055 0.35334745049476624 -6.958035469055176 12.94991683959961 -8.136051177978516 7.257856845855713 -14.43458080291748 -14.565473556518555 0.0235213004052639 -0.5031995177268982 0.43429940938949585 -0.15131612122058868 -0.026426143944263458 0.1452854722738266 0.06517519801855087 -0.21591725945472717 0.22394947707653046 71.95460510253906 6.319129943847656 45.11252975463867 -27.949962615966797 -31.718652725219727 70.21170806884766 -8.781157493591309 -60.43973922729492 -14.766363143920898 0.11992380023002625 -0.06442075222730637 0.4242282509803772 0.033515267074108124 0.12968528270721436 -0.1266353875398636 -0.18398213386535645 -0.20067279040813446 -0.2198350727558136 7.579752445220947 5.320219993591309 0.2624282240867615 0.2396920621395111 -0.04255862906575203 -0.12097511440515518 2.7651233673095703 0.7825837135314941 -0.058596014976501465 -0.07239807397127151 0.11294227838516235 -0.05506584420800209 10.28138542175293 0.6601600646972656 -0.455138236284256 0.22665365040302277 -0.1222677007317543 0.14977553486824036 2.215559244155884 -0.8775251507759094 -0.1400839239358902 -0.0583149790763855 -0.2843114137649536 0.34782612323760986 -42.859352111816406 61.60268783569336 -65.54649353027344 17.629470825195312 -10.200921058654785 -32.37174987792969 4.804015636444092 52.35492706298828 -10.44873332977295 0.14770424365997314 0.12996800243854523 0.35825443267822266 -0.08210688829421997 -0.5363526344299316 0.2810642719268799 0.2808118462562561 -0.0799863263964653 0.021215075626969337 -7.500975608825684 5.115519046783447 -0.2902276813983917 -0.1264827698469162 0.7288832068443298 0.24460047483444214 -2.8697729110717773 1.0659904479980469 -0.23017816245555878 -0.4386831820011139 -0.11954370886087418 -0.1870013028383255 -10.268755912780762 0.8109239935874939 0.18877838551998138 0.26485610008239746 0.48032352328300476 -0.12676939368247986 -2.472419261932373 -0.5113570094108582 0.2256709337234497 -0.22241930663585663 -0.1107330471277237 0.2827242910861969 -48.23870849609375 -59.877479553222656 -39.507415771484375 -1.278517246246338 66.10607147216797 2.188152313232422 -5.604523181915283 -7.480681419372559 -14.599518775939941 -0.03572157025337219 0.30721160769462585 0.23571984469890594 -5.256848335266113 7.039371490478516 7.824161529541016 -0.07053371518850327 42.86292266845703 -2.5577378273010254 21.608903884887695 -26.87593650817871 38.09020233154297
